# MagicaVoxel @ Ephtracy

# group
g cage

# material
mtllib cage.mtl
usemtl palette

# normals
vn -1 0 0
vn 1 0 0
vn 0 0 1
vn 0 0 -1
vn 0 -1 0
vn 0 1 0

# texcoords
vt 0.146484 0.5
vt 0.958984 0.5
vt 0.966797 0.5

# verts
v -20 0 -0
v -20 0 -3
v -20 1 -0
v -20 1 -3
v -20 2 -0
v -20 2 -3
v -20 3 -0
v -20 3 -3
v -20 22 -0
v -20 22 -3
v -20 23 -0
v -20 23 -3
v -20 26 -0
v -20 26 -3
v 17 0 -0
v 17 0 -3
v 17 1 -0
v 17 1 -3
v 17 2 -0
v 17 2 -3
v 17 3 -0
v 17 3 -3
v 17 22 -0
v 17 22 -3
v 17 23 -0
v 17 23 -3
v -17 0 -0
v -17 0 -3
v -17 1 -0
v -17 1 -3
v -17 2 -0
v -17 2 -3
v -17 3 -0
v -17 3 -3
v -17 22 -0
v -17 22 -3
v -17 23 -0
v -17 23 -3
v 20 0 -0
v 20 0 -3
v 20 1 -0
v 20 1 -3
v 20 2 -0
v 20 2 -3
v 20 3 -0
v 20 3 -3
v 20 22 -0
v 20 22 -3
v 20 23 -0
v 20 23 -3
v 20 26 -0
v 20 26 -3
v -20 0 -0
v -20 1 -0
v -20 2 -0
v -20 3 -0
v -20 22 -0
v -20 23 -0
v -20 26 -0
v -17 0 -0
v -17 1 -0
v -17 2 -0
v -17 3 -0
v -17 22 -0
v -17 23 -0
v -17 26 -0
v -16 23 -0
v -16 26 -0
v 16 23 -0
v 16 26 -0
v 17 0 -0
v 17 1 -0
v 17 2 -0
v 17 3 -0
v 17 22 -0
v 17 23 -0
v 17 26 -0
v 20 0 -0
v 20 1 -0
v 20 2 -0
v 20 3 -0
v 20 22 -0
v 20 23 -0
v 20 26 -0
v -20 0 -3
v -20 1 -3
v -20 2 -3
v -20 3 -3
v -20 22 -3
v -20 23 -3
v -20 26 -3
v -17 0 -3
v -17 1 -3
v -17 2 -3
v -17 3 -3
v -17 22 -3
v -17 23 -3
v -17 26 -3
v -16 23 -3
v -16 26 -3
v 16 23 -3
v 16 26 -3
v 17 0 -3
v 17 1 -3
v 17 2 -3
v 17 3 -3
v 17 22 -3
v 17 23 -3
v 17 26 -3
v 20 0 -3
v 20 1 -3
v 20 2 -3
v 20 3 -3
v 20 22 -3
v 20 23 -3
v 20 26 -3
v -20 0 -0
v -17 0 -0
v 17 0 -0
v 20 0 -0
v -19 0 -1
v -18 0 -1
v 18 0 -1
v 19 0 -1
v -19 0 -2
v -18 0 -2
v 18 0 -2
v 19 0 -2
v -20 0 -3
v -17 0 -3
v 17 0 -3
v 20 0 -3
v -17 23 -0
v -16 23 -0
v 16 23 -0
v 17 23 -0
v -17 23 -3
v -16 23 -3
v 16 23 -3
v 17 23 -3
v -20 26 -0
v -17 26 -0
v -16 26 -0
v 16 26 -0
v 17 26 -0
v 20 26 -0
v -20 26 -3
v -17 26 -3
v -16 26 -3
v 16 26 -3
v 17 26 -3
v 20 26 -3

# faces
f 3/1/1 2/1/1 1/1/1
f 4/1/1 2/1/1 3/1/1
f 5/3/1 4/3/1 3/3/1
f 6/3/1 4/3/1 5/3/1
f 7/1/1 6/1/1 5/1/1
f 8/1/1 6/1/1 7/1/1
f 9/2/1 8/2/1 7/2/1
f 10/2/1 8/2/1 9/2/1
f 11/1/1 10/1/1 9/1/1
f 12/1/1 10/1/1 11/1/1
f 13/3/1 12/3/1 11/3/1
f 14/3/1 12/3/1 13/3/1
f 17/1/1 16/1/1 15/1/1
f 18/1/1 16/1/1 17/1/1
f 19/3/1 18/3/1 17/3/1
f 20/3/1 18/3/1 19/3/1
f 21/1/1 20/1/1 19/1/1
f 22/1/1 20/1/1 21/1/1
f 23/2/1 22/2/1 21/2/1
f 24/2/1 22/2/1 23/2/1
f 25/1/1 24/1/1 23/1/1
f 26/1/1 24/1/1 25/1/1
f 27/1/2 28/1/2 29/1/2
f 29/1/2 28/1/2 30/1/2
f 29/3/2 30/3/2 31/3/2
f 31/3/2 30/3/2 32/3/2
f 31/1/2 32/1/2 33/1/2
f 33/1/2 32/1/2 34/1/2
f 33/2/2 34/2/2 35/2/2
f 35/2/2 34/2/2 36/2/2
f 35/1/2 36/1/2 37/1/2
f 37/1/2 36/1/2 38/1/2
f 39/1/2 40/1/2 41/1/2
f 41/1/2 40/1/2 42/1/2
f 41/3/2 42/3/2 43/3/2
f 43/3/2 42/3/2 44/3/2
f 43/1/2 44/1/2 45/1/2
f 45/1/2 44/1/2 46/1/2
f 45/2/2 46/2/2 47/2/2
f 47/2/2 46/2/2 48/2/2
f 47/1/2 48/1/2 49/1/2
f 49/1/2 48/1/2 50/1/2
f 49/3/2 50/3/2 51/3/2
f 51/3/2 50/3/2 52/3/2
f 60/1/3 54/1/3 53/1/3
f 61/3/3 55/3/3 54/3/3
f 61/1/3 54/1/3 60/1/3
f 62/1/3 56/1/3 55/1/3
f 62/3/3 55/3/3 61/3/3
f 63/2/3 57/2/3 56/2/3
f 63/1/3 56/1/3 62/1/3
f 64/1/3 58/1/3 57/1/3
f 64/2/3 57/2/3 63/2/3
f 65/3/3 59/3/3 58/3/3
f 65/1/3 58/1/3 64/1/3
f 66/3/3 59/3/3 65/3/3
f 67/1/3 66/1/3 65/1/3
f 68/1/3 66/1/3 67/1/3
f 69/2/3 68/2/3 67/2/3
f 70/2/3 68/2/3 69/2/3
f 76/1/3 70/1/3 69/1/3
f 77/1/3 70/1/3 76/1/3
f 78/1/3 72/1/3 71/1/3
f 79/3/3 73/3/3 72/3/3
f 79/1/3 72/1/3 78/1/3
f 80/1/3 74/1/3 73/1/3
f 80/3/3 73/3/3 79/3/3
f 81/2/3 75/2/3 74/2/3
f 81/1/3 74/1/3 80/1/3
f 82/1/3 76/1/3 75/1/3
f 82/2/3 75/2/3 81/2/3
f 83/3/3 77/3/3 76/3/3
f 83/1/3 76/1/3 82/1/3
f 84/3/3 77/3/3 83/3/3
f 85/1/4 86/1/4 92/1/4
f 86/3/4 87/3/4 93/3/4
f 92/1/4 86/1/4 93/1/4
f 87/1/4 88/1/4 94/1/4
f 93/3/4 87/3/4 94/3/4
f 88/2/4 89/2/4 95/2/4
f 94/1/4 88/1/4 95/1/4
f 89/1/4 90/1/4 96/1/4
f 95/2/4 89/2/4 96/2/4
f 90/3/4 91/3/4 97/3/4
f 96/1/4 90/1/4 97/1/4
f 97/3/4 91/3/4 98/3/4
f 97/1/4 98/1/4 99/1/4
f 99/1/4 98/1/4 100/1/4
f 99/2/4 100/2/4 101/2/4
f 101/2/4 100/2/4 102/2/4
f 101/1/4 102/1/4 108/1/4
f 108/1/4 102/1/4 109/1/4
f 103/1/4 104/1/4 110/1/4
f 104/3/4 105/3/4 111/3/4
f 110/1/4 104/1/4 111/1/4
f 105/1/4 106/1/4 112/1/4
f 111/3/4 105/3/4 112/3/4
f 106/2/4 107/2/4 113/2/4
f 112/1/4 106/1/4 113/1/4
f 107/1/4 108/1/4 114/1/4
f 113/2/4 107/2/4 114/2/4
f 108/3/4 109/3/4 115/3/4
f 114/1/4 108/1/4 115/1/4
f 115/3/4 109/3/4 116/3/4
f 121/1/5 118/1/5 117/1/5
f 122/1/5 118/1/5 121/1/5
f 123/1/5 120/1/5 119/1/5
f 124/1/5 120/1/5 123/1/5
f 125/1/5 121/1/5 117/1/5
f 125/2/5 122/2/5 121/2/5
f 126/1/5 118/1/5 122/1/5
f 126/2/5 122/2/5 125/2/5
f 127/2/5 124/2/5 123/2/5
f 127/1/5 123/1/5 119/1/5
f 128/1/5 120/1/5 124/1/5
f 128/2/5 124/2/5 127/2/5
f 129/1/5 125/1/5 117/1/5
f 129/1/5 126/1/5 125/1/5
f 130/1/5 118/1/5 126/1/5
f 130/1/5 126/1/5 129/1/5
f 131/1/5 127/1/5 119/1/5
f 131/1/5 128/1/5 127/1/5
f 132/1/5 120/1/5 128/1/5
f 132/1/5 128/1/5 131/1/5
f 137/1/5 134/1/5 133/1/5
f 138/2/5 135/2/5 134/2/5
f 138/1/5 134/1/5 137/1/5
f 139/1/5 136/1/5 135/1/5
f 139/2/5 135/2/5 138/2/5
f 140/1/5 136/1/5 139/1/5
f 141/3/6 142/3/6 147/3/6
f 142/1/6 143/1/6 148/1/6
f 147/3/6 142/3/6 148/3/6
f 143/2/6 144/2/6 149/2/6
f 148/1/6 143/1/6 149/1/6
f 144/1/6 145/1/6 150/1/6
f 149/2/6 144/2/6 150/2/6
f 145/3/6 146/3/6 151/3/6
f 150/1/6 145/1/6 151/1/6
f 151/3/6 146/3/6 152/3/6
